<svg width="18" height="18" viewBox="0 0 18 18" fill="none" xmlns="http://www.w3.org/2000/svg">
<path fill-rule="evenodd" clip-rule="evenodd" d="M13.8977 4.10225C14.1174 4.32192 14.1174 4.67808 13.8977 4.89775L4.89775 13.8977C4.67808 14.1174 4.32192 14.1174 4.10225 13.8977C3.88258 13.6781 3.88258 13.3219 4.10225 13.1023L13.1023 4.10225C13.3219 3.88258 13.6781 3.88258 13.8977 4.10225Z" fill="white"/>
<path fill-rule="evenodd" clip-rule="evenodd" d="M5.625 4.5C5.625 4.18934 5.87684 3.9375 6.1875 3.9375H13.5C13.8107 3.9375 14.0625 4.18934 14.0625 4.5V11.8125C14.0625 12.1232 13.8107 12.375 13.5 12.375C13.1893 12.375 12.9375 12.1232 12.9375 11.8125V5.0625H6.1875C5.87684 5.0625 5.625 4.81066 5.625 4.5Z" fill="white"/>
</svg>
